<svg width="19" height="19" viewBox="0 0 19 19" fill="none" xmlns="http://www.w3.org/2000/svg">
<path d="M17.5385 0H1.46154C1.07391 0 0.702166 0.153983 0.428075 0.428075C0.153983 0.702166 0 1.07391 0 1.46154V17.5385C0 17.9261 0.153983 18.2978 0.428075 18.5719C0.702166 18.846 1.07391 19 1.46154 19H17.5385C17.9261 19 18.2978 18.846 18.5719 18.5719C18.846 18.2978 19 17.9261 19 17.5385V1.46154C19 1.07391 18.846 0.702166 18.5719 0.428075C18.2978 0.153983 17.9261 0 17.5385 0ZM17.5385 17.5385H1.46154V1.46154H17.5385V17.5385ZM6.57692 8.03846V13.8846C6.57692 14.0784 6.49993 14.2643 6.36289 14.4013C6.22584 14.5384 6.03997 14.6154 5.84615 14.6154C5.65234 14.6154 5.46647 14.5384 5.32942 14.4013C5.19238 14.2643 5.11538 14.0784 5.11538 13.8846V8.03846C5.11538 7.84465 5.19238 7.65878 5.32942 7.52173C5.46647 7.38468 5.65234 7.30769 5.84615 7.30769C6.03997 7.30769 6.22584 7.38468 6.36289 7.52173C6.49993 7.65878 6.57692 7.84465 6.57692 8.03846ZM14.6154 10.5962V13.8846C14.6154 14.0784 14.5384 14.2643 14.4013 14.4013C14.2643 14.5384 14.0784 14.6154 13.8846 14.6154C13.6908 14.6154 13.5049 14.5384 13.3679 14.4013C13.2308 14.2643 13.1538 14.0784 13.1538 13.8846V10.5962C13.1538 10.1116 12.9614 9.64694 12.6188 9.30432C12.2761 8.96171 11.8115 8.76923 11.3269 8.76923C10.8424 8.76923 10.3777 8.96171 10.0351 9.30432C9.69248 9.64694 9.5 10.1116 9.5 10.5962V13.8846C9.5 14.0784 9.42301 14.2643 9.28596 14.4013C9.14892 14.5384 8.96304 14.6154 8.76923 14.6154C8.57542 14.6154 8.38954 14.5384 8.2525 14.4013C8.11545 14.2643 8.03846 14.0784 8.03846 13.8846V8.03846C8.03937 7.85946 8.10594 7.68702 8.22555 7.55385C8.34516 7.42068 8.50949 7.33604 8.68736 7.31599C8.86523 7.29594 9.04428 7.34187 9.19054 7.44507C9.33679 7.54827 9.44008 7.70156 9.48082 7.87587C9.97517 7.54051 10.5515 7.34615 11.148 7.31365C11.7445 7.28115 12.3386 7.41174 12.8664 7.6914C13.3943 7.97106 13.836 8.38923 14.1441 8.90099C14.4523 9.41275 14.6152 9.99879 14.6154 10.5962ZM6.94231 5.48077C6.94231 5.69757 6.87802 5.9095 6.75757 6.08976C6.63713 6.27002 6.46593 6.41052 6.26563 6.49348C6.06534 6.57645 5.84494 6.59816 5.6323 6.55586C5.41967 6.51357 5.22436 6.40917 5.07106 6.25587C4.91776 6.10257 4.81336 5.90725 4.77106 5.69462C4.72877 5.48199 4.75047 5.26159 4.83344 5.06129C4.9164 4.86099 5.0569 4.6898 5.23716 4.56935C5.41743 4.4489 5.62935 4.38462 5.84615 4.38462C6.13687 4.38462 6.41568 4.5001 6.62125 4.70567C6.82682 4.91124 6.94231 5.19005 6.94231 5.48077Z" fill="white"/>
</svg>
