<svg width="20" height="19" viewBox="0 0 20 19" fill="none" xmlns="http://www.w3.org/2000/svg">
<path d="M6.11787 18.5683H6.02925C4.24412 18.5527 2.4848 18.1403 0.878672 17.361C0.583233 17.2222 0.339975 16.9925 0.184511 16.7055C0.0290472 16.4185 -0.030459 16.0892 0.0147039 15.766C0.0638221 15.4405 0.21451 15.1389 0.445255 14.9041C0.676 14.6694 0.975005 14.5136 1.29958 14.4589C2.29493 14.3261 3.25247 13.9906 4.11302 13.4731C2.61897 12.305 1.46878 10.7545 0.784322 8.98581C0.0998673 7.21714 -0.0933459 5.29626 0.225158 3.42671C0.268343 3.13059 0.395697 2.8531 0.592065 2.62728C0.788433 2.40145 1.04555 2.2368 1.33281 2.15291C1.61229 2.06514 1.91139 2.06139 2.19298 2.14213C2.47457 2.22286 2.72624 2.38453 2.91675 2.60705C3.56362 3.45527 4.37652 4.16282 5.30585 4.68652C6.23519 5.21022 7.26147 5.5391 8.32209 5.65309C8.37276 4.34812 8.93356 3.11515 9.88388 2.21937C10.3584 1.76498 10.9186 1.40958 11.5319 1.17387C12.1451 0.938157 12.7991 0.826852 13.4558 0.846439C14.1125 0.866027 14.7588 1.01612 15.3569 1.28796C15.955 1.5598 16.493 1.94796 16.9396 2.42983C17.056 2.53269 17.2005 2.59825 17.3546 2.618C17.5086 2.63775 17.6651 2.61078 17.8036 2.54059C18.0677 2.41603 18.3618 2.36914 18.6515 2.4054C18.9413 2.44165 19.2147 2.55955 19.44 2.74534C19.6652 2.93113 19.833 3.17714 19.9238 3.45469C20.0145 3.73223 20.0245 4.02985 19.9524 4.31283C19.697 5.36523 19.2129 6.34847 18.5346 7.19273C18.3852 10.3437 16.996 13.3078 14.67 15.4388C12.344 17.5697 9.26987 18.6947 6.11787 18.5683V18.5683ZM6.11787 16.353H6.20648C7.49431 16.3973 8.77813 16.1855 9.98349 15.7299C11.1889 15.2743 12.2918 14.584 13.2284 13.699C14.1649 12.8139 14.9165 11.7517 15.4395 10.574C15.9625 9.39635 16.2465 8.12656 16.275 6.83828C16.2933 6.48522 16.4389 6.15074 16.6849 5.89678C16.955 5.55479 17.1854 5.18318 17.3716 4.78913C16.9726 4.78988 16.5779 4.70642 16.2133 4.54418C15.8488 4.38194 15.5225 4.14458 15.256 3.84762C14.9997 3.59347 14.6952 3.39301 14.3605 3.25798C14.0258 3.12294 13.6674 3.05604 13.3065 3.06119C12.942 3.05176 12.5792 3.11443 12.239 3.24558C11.8987 3.37674 11.5877 3.5738 11.3238 3.82547C10.9678 4.1633 10.7068 4.58871 10.5668 5.05913C10.4268 5.52955 10.4129 6.02848 10.5263 6.50599L10.8143 7.76871L9.51836 7.85732C8.19039 7.96561 6.85475 7.78395 5.60393 7.32494C4.35312 6.86592 3.21702 6.14052 2.27431 5.19896C2.23388 6.65707 2.59864 8.09782 3.32802 9.36104C4.0574 10.6243 5.12283 11.6604 6.40586 12.3544L7.45813 12.9525L6.7603 13.9494C6.00565 14.9391 4.97165 15.6799 3.7918 16.0761C4.54867 16.2658 5.32653 16.3588 6.10679 16.353H6.11787Z" fill="white"/>
</svg>
